<?xml version="1.0" encoding="utf-8"?>
<!-- Generator: Adobe Illustrator 23.0.3, SVG Export Plug-In . SVG Version: 6.00 Build 0)  -->
<svg version="1.1" id="Layer_1" xmlns="http://www.w3.org/2000/svg" xmlns:xlink="http://www.w3.org/1999/xlink" x="0px" y="0px"
	 viewBox="0 0 1280 1024" style="enable-background:new 0 0 1280 1024;" xml:space="preserve">
<style type="text/css">
	.st0{fill:#FFFFFF;}
	.st1{fill:#0071BC;}
</style>
<g>
	<rect x="355.97" y="220.57" class="st0" width="401" height="106"/>
</g>
<g>
	<path class="st1" d="M377.22,292.08h10.91c1.04,4.01,4.39,6.02,10.07,6.02c4.01,0,6.84-1.3,8.49-3.9c1.65-2.6,2.47-6.55,2.47-11.85
		v-43.23h12.23v42.86c0,9.16-1.95,15.95-5.83,20.37c-3.89,4.42-10.13,6.63-18.72,6.63c-5.71,0-10.32-1.49-13.83-4.47
		C379.49,301.52,377.56,297.38,377.22,292.08z"/>
	<path class="st1" d="M475.02,308.02l-5.03-13.97h-23.62l-4.8,13.97h-13.59l27.47-69.86h5.36l27.71,69.86H475.02z M458.13,259.24
		l-8.28,25.45h16.56L458.13,259.24z"/>
	<path class="st1" d="M515.85,279.75v28.27h-12.23v-28.27l-23.24-40.64h12.98l16.32,29.4l16.37-29.4H539L515.85,279.75z"/>
	<path d="M584.53,308.02l-18.39-29.59c-2.1,0-5.43-0.16-9.97-0.47v30.06h-9.41v-68.92c0.34,0,2.78-0.12,7.31-0.35
		c4.53-0.24,7.83-0.35,9.9-0.35c16.56,0,24.84,6.59,24.84,19.76c0,4.33-1.33,8.23-4,11.69c-2.67,3.46-5.83,5.62-9.5,6.47
		l19.99,31.71H584.53z M556.17,247.58v22.39c2.26,0.31,4.45,0.47,6.59,0.47c5.65,0,9.75-0.91,12.32-2.73
		c2.57-1.82,3.86-5.06,3.86-9.74c0-3.86-1.38-6.63-4.14-8.33c-2.76-1.69-7.12-2.54-13.08-2.54
		C560.78,247.1,558.92,247.26,556.17,247.58z"/>
	<path d="M604.01,308.02v-68.92h9.41v68.92H604.01z"/>
	<path d="M673.16,241.65l-3.15,8.04c-3.01-2.19-7.75-3.29-14.21-3.29c-6.05,0-10.91,2.6-14.56,7.81
		c-3.65,5.21-5.48,11.92-5.48,20.13c0,7.84,1.87,14.2,5.62,19.08c3.75,4.88,8.58,7.32,14.51,7.32c6.46,0,11.43-2.29,14.91-6.87
		l5.18,7.2c-5.46,5.43-12.48,8.14-21.08,8.14c-9,0-16.09-3.25-21.26-9.74c-5.17-6.49-7.76-15.05-7.76-25.68
		c0-10.29,2.76-18.83,8.28-25.64c5.52-6.8,12.66-10.21,21.4-10.21C663.06,237.93,668.93,239.17,673.16,241.65z"/>
	<path d="M726.32,308.02v-33.31h-30.11v33.31h-9.41v-68.92h9.41v27.61h30.11v-27.61h9.41v68.92H726.32z"/>
</g>
</svg>
